<svg width="120" height="120" viewBox="0 0 120 120" xmlns="http://www.w3.org/2000/svg">
  <defs>
    <radialGradient id="gradLove" cx="50%" cy="50%" r="50%">
      <stop offset="0%" stop-color="#FFD54F" />
      <stop offset="100%" stop-color="#FFB300" />
    </radialGradient>
  </defs>

  <!-- Rosto com degradê -->
  <circle cx="60" cy="60" r="55" fill="url(#gradLove)" stroke="#F57C00" stroke-width="4"/>

  <!-- Olhos em formato coração simétricos e alinhados -->
  <g fill="#E53935" transform="translate(25,30)">
    <path d="M15 10 
             C15 2, 25 2, 25 10 
             C25 18, 15 26, 15 26 
             C15 26, 5 18, 5 10 
             C5 2, 15 2, 15 10 Z"/>
  </g>
  <g fill="#E53935" transform="translate(65,30)">
    <path d="M15 10 
             C15 2, 25 2, 25 10 
             C25 18, 15 26, 15 26 
             C15 26, 5 18, 5 10 
             C5 2, 15 2, 15 10 Z"/>
  </g>

  <!-- Sobrancelhas -->
  <path d="M30 35 Q40 30 50 35" stroke="#000" stroke-width="3" fill="none" stroke-linecap="round"/>
  <path d="M70 35 Q80 30 90 35" stroke="#000" stroke-width="3" fill="none" stroke-linecap="round"/>

  <!-- Boca sorrindo -->
  <path d="M40 80 Q60 95 80 80" stroke="#000" stroke-width="5" fill="none" stroke-linecap="round"/>
</svg>
