<svg width="120" height="120" viewBox="0 0 120 120" xmlns="http://www.w3.org/2000/svg">
  <defs>
    <radialGradient id="gradLaughCry" cx="50%" cy="50%" r="50%">
      <stop offset="0%" stop-color="#FFEE58" />
      <stop offset="100%" stop-color="#FDD835" />
    </radialGradient>
  </defs>

  <!-- Rosto com degradê -->
  <circle cx="60" cy="60" r="55" fill="url(#gradLaughCry)" stroke="#FBC02D" stroke-width="4"/>

  <!-- Olhos semicerrados de riso -->
  <path d="M33 45 Q40 40 47 45" stroke="#000" stroke-width="4" fill="none" stroke-linecap="round"/>
  <path d="M73 45 Q80 40 87 45" stroke="#000" stroke-width="4" fill="none" stroke-linecap="round"/>

  <!-- Sobrancelhas arqueadas -->
  <path d="M28 30 Q40 25 52 30" stroke="#000" stroke-width="3" fill="none" stroke-linecap="round"/>
  <path d="M68 30 Q80 25 92 30" stroke="#000" stroke-width="3" fill="none" stroke-linecap="round"/>

  <!-- Boca aberta sorrindo -->
  <path d="M35 70 Q60 95 85 70 Q60 110 35 70" fill="#000" stroke-linecap="round"/>

  <!-- Lágrimas dos olhos -->
  <path d="M25 55 C20 62, 22 70, 30 72 C36 70, 37 62, 32 55 Z" fill="#2196F3" opacity="0.85"/>
  <path d="M95 55 C90 62, 92 70, 100 72 C106 70, 107 62, 102 55 Z" fill="#2196F3" opacity="0.85"/>
</svg>
